<?xml version="1.0" encoding="UTF-8" standalone="no"?>
<!DOCTYPE svg PUBLIC "-//W3C//DTD SVG 1.1//EN" "http://www.w3.org/Graphics/SVG/1.1/DTD/svg11.dtd">
<!-- Generated by graphviz version 2.40.1 (20161225.0304)
 -->
<!-- Title: G Pages: 1 -->
<svg width="302pt" height="260pt" viewBox="0.00 0.00 301.99 260.00" xmlns="http://www.w3.org/2000/svg" xmlns:xlink="http://www.w3.org/1999/xlink">
<g id="graph0" class="graph" transform="scale(1 1) rotate(0) translate(4 256)">
<title>G</title>
<polygon fill="#ffffff" stroke="transparent" points="-4,4 -4,-256 297.989,-256 297.989,4 -4,4"/>
<!-- 2 -->
<g id="node1" class="node">
<title>2</title>
<ellipse fill="none" stroke="#000000" cx="69.989" cy="-234" rx="27" ry="18"/>
<text text-anchor="middle" x="69.989" y="-229.8" font-family="Times,serif" font-size="14.00" fill="#000000">2</text>
</g>
<!-- 3 -->
<g id="node2" class="node">
<title>3</title>
<ellipse fill="none" stroke="#000000" cx="97.989" cy="-162" rx="27" ry="18"/>
<text text-anchor="middle" x="97.989" y="-157.8" font-family="Times,serif" font-size="14.00" fill="#000000">3</text>
</g>
<!-- 2&#45;&#45;3 -->
<g id="edge3" class="edge">
<title>2--3</title>
<path fill="none" stroke="#000000" d="M76.767,-216.5708C81.1369,-205.3339 86.7996,-190.7727 91.1763,-179.5182"/>
</g>
<!-- 4 -->
<g id="node3" class="node">
<title>4</title>
<ellipse fill="none" stroke="#000000" cx="42.989" cy="-90" rx="27" ry="18"/>
<text text-anchor="middle" x="42.989" y="-85.8" font-family="Times,serif" font-size="14.00" fill="#000000">4</text>
</g>
<!-- 2&#45;&#45;4 -->
<g id="edge2" class="edge">
<title>2--4</title>
<path fill="none" stroke="#000000" d="M66.624,-216.0535C61.4501,-188.4592 51.5957,-135.9026 46.3963,-108.1727"/>
</g>
<!-- 5 -->
<g id="node4" class="node">
<title>5</title>
<ellipse fill="none" stroke="#000000" cx="192.989" cy="-162" rx="27" ry="18"/>
<text text-anchor="middle" x="192.989" y="-157.8" font-family="Times,serif" font-size="14.00" fill="#000000">5</text>
</g>
<!-- 2&#45;&#45;5 -->
<g id="edge1" class="edge">
<title>2--5</title>
<path fill="none" stroke="#000000" d="M90.2999,-222.1107C113.0898,-208.7702 149.8456,-187.2547 172.6478,-173.907"/>
</g>
<!-- 6 -->
<g id="node5" class="node">
<title>6</title>
<ellipse fill="none" stroke="#000000" cx="70.989" cy="-18" rx="27" ry="18"/>
<text text-anchor="middle" x="70.989" y="-13.8" font-family="Times,serif" font-size="14.00" fill="#000000">6</text>
</g>
<!-- 2&#45;&#45;6 -->
<g id="edge4" class="edge">
<title>2--6</title>
<path fill="none" stroke="#000000" d="M55.5674,-218.5396C30.219,-189.3972 -17.4259,-124.5444 6.989,-72 15.7491,-53.1468 34.6923,-38.5067 49.7087,-29.2556"/>
</g>
<!-- 3&#45;&#45;4 -->
<g id="edge5" class="edge">
<title>3--4</title>
<path fill="none" stroke="#000000" d="M85.5086,-145.6621C76.5075,-133.8788 64.4096,-118.0416 55.4199,-106.2733"/>
</g>
<!-- 3&#45;&#45;6 -->
<g id="edge6" class="edge">
<title>3--6</title>
<path fill="none" stroke="#000000" d="M94.624,-144.0535C89.4501,-116.4592 79.5957,-63.9026 74.3963,-36.1727"/>
</g>
<!-- 7 -->
<g id="node6" class="node">
<title>7</title>
<ellipse fill="none" stroke="#000000" cx="211.989" cy="-18" rx="27" ry="18"/>
<text text-anchor="middle" x="211.989" y="-13.8" font-family="Times,serif" font-size="14.00" fill="#000000">7</text>
</g>
<!-- 3&#45;&#45;7 -->
<g id="edge7" class="edge">
<title>3--7</title>
<path fill="none" stroke="#000000" d="M110.6245,-146.0393C132.5377,-118.3595 177.3443,-61.7617 199.2968,-34.0322"/>
</g>
<!-- 4&#45;&#45;6 -->
<g id="edge8" class="edge">
<title>4--6</title>
<path fill="none" stroke="#000000" d="M49.767,-72.5708C54.1369,-61.3339 59.7996,-46.7727 64.1763,-35.5182"/>
</g>
<!-- 5&#45;&#45;6 -->
<g id="edge9" class="edge">
<title>5--6</title>
<path fill="none" stroke="#000000" d="M179.7006,-146.3154C156.3563,-118.7615 108.2271,-61.9532 84.6334,-34.1049"/>
</g>
<!-- 5&#45;&#45;7 -->
<g id="edge10" class="edge">
<title>5--7</title>
<path fill="none" stroke="#000000" d="M195.3569,-144.0535C198.9978,-116.4592 205.9324,-63.9026 209.5912,-36.1727"/>
</g>
<!-- 8 -->
<g id="node7" class="node">
<title>8</title>
<ellipse fill="none" stroke="#000000" cx="266.989" cy="-90" rx="27" ry="18"/>
<text text-anchor="middle" x="266.989" y="-85.8" font-family="Times,serif" font-size="14.00" fill="#000000">8</text>
</g>
<!-- 5&#45;&#45;8 -->
<g id="edge11" class="edge">
<title>5--8</title>
<path fill="none" stroke="#000000" d="M208.3218,-147.0816C221.022,-134.7246 238.981,-117.251 251.6758,-104.8993"/>
</g>
<!-- 8&#45;&#45;7 -->
<g id="edge12" class="edge">
<title>8--7</title>
<path fill="none" stroke="#000000" d="M254.5086,-73.6621C245.5075,-61.8788 233.4096,-46.0416 224.4199,-34.2733"/>
</g>
</g>
</svg>