<?xml version="1.0" encoding="UTF-8" standalone="no"?>
<!DOCTYPE svg PUBLIC "-//W3C//DTD SVG 1.1//EN" "http://www.w3.org/Graphics/SVG/1.1/DTD/svg11.dtd">
<!-- Generated by graphviz version 2.40.1 (20161225.0304)
 -->
<!-- Title: G Pages: 1 -->
<svg width="203pt" height="260pt" viewBox="0.00 0.00 202.97 260.00" xmlns="http://www.w3.org/2000/svg" xmlns:xlink="http://www.w3.org/1999/xlink">
<g id="graph0" class="graph" transform="scale(1 1) rotate(0) translate(4 256)">
<title>G</title>
<polygon fill="#ffffff" stroke="transparent" points="-4,4 -4,-256 198.9655,-256 198.9655,4 -4,4"/>
<!-- 2 -->
<g id="node1" class="node">
<title>2</title>
<ellipse fill="none" stroke="#000000" cx="118" cy="-234" rx="27" ry="18"/>
<text text-anchor="middle" x="118" y="-229.8" font-family="Times,serif" font-size="14.00" fill="#000000">2</text>
</g>
<!-- 3 -->
<g id="node2" class="node">
<title>3</title>
<ellipse fill="none" stroke="#000000" cx="82" cy="-162" rx="27" ry="18"/>
<text text-anchor="middle" x="82" y="-157.8" font-family="Times,serif" font-size="14.00" fill="#000000">3</text>
</g>
<!-- 2&#45;&#45;3 -->
<g id="edge3" class="edge">
<title>2--3</title>
<path fill="none" stroke="#000000" d="M109.2854,-216.5708C103.6253,-205.2506 96.2784,-190.5568 90.6343,-179.2687"/>
</g>
<!-- 4 -->
<g id="node3" class="node">
<title>4</title>
<ellipse fill="none" stroke="#000000" cx="27" cy="-90" rx="27" ry="18"/>
<text text-anchor="middle" x="27" y="-85.8" font-family="Times,serif" font-size="14.00" fill="#000000">4</text>
</g>
<!-- 2&#45;&#45;4 -->
<g id="edge2" class="edge">
<title>2--4</title>
<path fill="none" stroke="#000000" d="M96.0003,-223.1214C79.6625,-213.8897 58.1817,-199.1027 46,-180 32.0043,-158.0526 28.1284,-127.5669 27.1594,-108.3136"/>
</g>
<!-- 5 -->
<g id="node4" class="node">
<title>5</title>
<ellipse fill="none" stroke="#000000" cx="154" cy="-162" rx="27" ry="18"/>
<text text-anchor="middle" x="154" y="-157.8" font-family="Times,serif" font-size="14.00" fill="#000000">5</text>
</g>
<!-- 2&#45;&#45;5 -->
<g id="edge1" class="edge">
<title>2--5</title>
<path fill="none" stroke="#000000" d="M126.7146,-216.5708C132.3747,-205.2506 139.7216,-190.5568 145.3657,-179.2687"/>
</g>
<!-- 6 -->
<g id="node5" class="node">
<title>6</title>
<ellipse fill="none" stroke="#000000" cx="137" cy="-18" rx="27" ry="18"/>
<text text-anchor="middle" x="137" y="-13.8" font-family="Times,serif" font-size="14.00" fill="#000000">6</text>
</g>
<!-- 2&#45;&#45;6 -->
<g id="edge4" class="edge">
<title>2--6</title>
<path fill="none" stroke="#000000" d="M140.8054,-223.9595C157.8141,-215.0986 179.7979,-200.4041 190,-180 196.2928,-167.4143 197.4796,-94.9115 188,-72 181.1965,-55.5565 166.908,-41.1494 155.1813,-31.3614"/>
</g>
<!-- 3&#45;&#45;4 -->
<g id="edge5" class="edge">
<title>3--4</title>
<path fill="none" stroke="#000000" d="M69.5196,-145.6621C60.5186,-133.8788 48.4207,-118.0416 39.431,-106.2733"/>
</g>
<!-- 3&#45;&#45;6 -->
<g id="edge6" class="edge">
<title>3--6</title>
<path fill="none" stroke="#000000" d="M83.7905,-143.8083C86.0888,-125.1875 91.0345,-95.7008 101,-72 106.7648,-58.2898 116.1559,-44.3613 123.9011,-34.0847"/>
</g>
<!-- 7 -->
<g id="node6" class="node">
<title>7</title>
<ellipse fill="none" stroke="#000000" cx="137" cy="-90" rx="27" ry="18"/>
<text text-anchor="middle" x="137" y="-85.8" font-family="Times,serif" font-size="14.00" fill="#000000">7</text>
</g>
<!-- 3&#45;&#45;7 -->
<g id="edge7" class="edge">
<title>3--7</title>
<path fill="none" stroke="#000000" d="M94.4804,-145.6621C103.4814,-133.8788 115.5793,-118.0416 124.569,-106.2733"/>
</g>
<!-- 4&#45;&#45;6 -->
<g id="edge8" class="edge">
<title>4--6</title>
<path fill="none" stroke="#000000" d="M46.4126,-77.2936C66.3961,-64.2135 97.3638,-43.9437 117.4115,-30.8216"/>
</g>
<!-- 5&#45;&#45;6 -->
<g id="edge9" class="edge">
<title>5--6</title>
<path fill="none" stroke="#000000" d="M162.6871,-144.8607C170.7777,-126.588 180.5431,-96.9132 173,-72 168.6901,-57.7653 159.2535,-43.8532 151.1229,-33.7156"/>
</g>
<!-- 5&#45;&#45;7 -->
<g id="edge10" class="edge">
<title>5--7</title>
<path fill="none" stroke="#000000" d="M149.7978,-144.2022C147.1823,-133.1252 143.8302,-118.928 141.2128,-107.8425"/>
</g>
</g>
</svg>