<?xml version="1.0" encoding="UTF-8" standalone="no"?>
<!DOCTYPE svg PUBLIC "-//W3C//DTD SVG 1.1//EN" "http://www.w3.org/Graphics/SVG/1.1/DTD/svg11.dtd">
<!-- Generated by graphviz version 2.40.1 (20161225.0304)
 -->
<!-- Title: G Pages: 1 -->
<svg width="122pt" height="260pt" viewBox="0.00 0.00 122.40 260.00" xmlns="http://www.w3.org/2000/svg" xmlns:xlink="http://www.w3.org/1999/xlink">
<g id="graph0" class="graph" transform="scale(1 1) rotate(0) translate(4 256)">
<title>G</title>
<polygon fill="#ffffff" stroke="transparent" points="-4,4 -4,-256 118.3999,-256 118.3999,4 -4,4"/>
<!-- 2 -->
<g id="node1" class="node">
<title>2</title>
<ellipse fill="none" stroke="#000000" cx="73" cy="-234" rx="27" ry="18"/>
<text text-anchor="middle" x="73" y="-229.8" font-family="Times,serif" font-size="14.00" fill="#000000">2</text>
</g>
<!-- 3 -->
<g id="node2" class="node">
<title>3</title>
<ellipse fill="none" stroke="#000000" cx="73" cy="-162" rx="27" ry="18"/>
<text text-anchor="middle" x="73" y="-157.8" font-family="Times,serif" font-size="14.00" fill="#000000">3</text>
</g>
<!-- 2&#45;&#45;3 -->
<g id="edge2" class="edge">
<title>2--3</title>
<path fill="none" stroke="#000000" d="M73,-215.8314C73,-205 73,-191.2876 73,-180.4133"/>
</g>
<!-- 4 -->
<g id="node3" class="node">
<title>4</title>
<ellipse fill="none" stroke="#000000" cx="27" cy="-90" rx="27" ry="18"/>
<text text-anchor="middle" x="27" y="-85.8" font-family="Times,serif" font-size="14.00" fill="#000000">4</text>
</g>
<!-- 2&#45;&#45;4 -->
<g id="edge1" class="edge">
<title>2--4</title>
<path fill="none" stroke="#000000" d="M59.4265,-218.1013C51.5027,-207.8948 42.0905,-193.9746 37,-180 28.3368,-156.2177 26.6151,-126.752 26.5302,-108.158"/>
</g>
<!-- 6 -->
<g id="node4" class="node">
<title>6</title>
<ellipse fill="none" stroke="#000000" cx="82" cy="-18" rx="27" ry="18"/>
<text text-anchor="middle" x="82" y="-13.8" font-family="Times,serif" font-size="14.00" fill="#000000">6</text>
</g>
<!-- 2&#45;&#45;6 -->
<g id="edge3" class="edge">
<title>2--6</title>
<path fill="none" stroke="#000000" d="M87.1229,-218.2844C95.2535,-208.1468 104.6901,-194.2347 109,-180 124.5337,-128.6957 102.691,-65.3769 89.9911,-35.3587"/>
</g>
<!-- 3&#45;&#45;4 -->
<g id="edge4" class="edge">
<title>3--4</title>
<path fill="none" stroke="#000000" d="M62.3311,-145.3008C54.8996,-133.669 45.0298,-118.2206 37.6111,-106.6087"/>
</g>
<!-- 3&#45;&#45;6 -->
<g id="edge5" class="edge">
<title>3--6</title>
<path fill="none" stroke="#000000" d="M74.1399,-143.7623C75.871,-116.0633 79.1437,-63.7005 80.8694,-36.0896"/>
</g>
<!-- 4&#45;&#45;6 -->
<g id="edge6" class="edge">
<title>4--6</title>
<path fill="none" stroke="#000000" d="M39.4804,-73.6621C48.4814,-61.8788 60.5793,-46.0416 69.569,-34.2733"/>
</g>
</g>
</svg>