<?xml version="1.0" encoding="UTF-8" standalone="no"?>
<!DOCTYPE svg PUBLIC "-//W3C//DTD SVG 1.1//EN" "http://www.w3.org/Graphics/SVG/1.1/DTD/svg11.dtd">
<!-- Generated by graphviz version 2.40.1 (20161225.0304)
 -->
<!-- Title: G Pages: 1 -->
<svg width="185pt" height="260pt" viewBox="0.00 0.00 185.29 260.00" xmlns="http://www.w3.org/2000/svg" xmlns:xlink="http://www.w3.org/1999/xlink">
<g id="graph0" class="graph" transform="scale(1 1) rotate(0) translate(4 256)">
<title>G</title>
<polygon fill="#ffffff" stroke="transparent" points="-4,4 -4,-256 181.2901,-256 181.2901,4 -4,4"/>
<!-- 2 -->
<g id="node1" class="node">
<title>2</title>
<ellipse fill="none" stroke="#000000" cx="109" cy="-234" rx="27" ry="18"/>
<text text-anchor="middle" x="109" y="-229.8" font-family="Times,serif" font-size="14.00" fill="#000000">2</text>
</g>
<!-- 3 -->
<g id="node2" class="node">
<title>3</title>
<ellipse fill="none" stroke="#000000" cx="82" cy="-162" rx="27" ry="18"/>
<text text-anchor="middle" x="82" y="-157.8" font-family="Times,serif" font-size="14.00" fill="#000000">3</text>
</g>
<!-- 2&#45;&#45;3 -->
<g id="edge3" class="edge">
<title>2--3</title>
<path fill="none" stroke="#000000" d="M102.3258,-216.2022C98.1407,-205.0419 92.7679,-190.7143 88.5974,-179.593"/>
</g>
<!-- 4 -->
<g id="node3" class="node">
<title>4</title>
<ellipse fill="none" stroke="#000000" cx="27" cy="-90" rx="27" ry="18"/>
<text text-anchor="middle" x="27" y="-85.8" font-family="Times,serif" font-size="14.00" fill="#000000">4</text>
</g>
<!-- 2&#45;&#45;4 -->
<g id="edge2" class="edge">
<title>2--4</title>
<path fill="none" stroke="#000000" d="M88.853,-221.8803C74.674,-212.2864 56.4312,-197.5964 46,-180 32.7263,-157.6086 28.653,-127.2443 27.4453,-108.1378"/>
</g>
<!-- 5 -->
<g id="node4" class="node">
<title>5</title>
<ellipse fill="none" stroke="#000000" cx="137" cy="-90" rx="27" ry="18"/>
<text text-anchor="middle" x="137" y="-85.8" font-family="Times,serif" font-size="14.00" fill="#000000">5</text>
</g>
<!-- 2&#45;&#45;5 -->
<g id="edge1" class="edge">
<title>2--5</title>
<path fill="none" stroke="#000000" d="M112.4896,-216.0535C117.8551,-188.4592 128.0745,-135.9026 133.4664,-108.1727"/>
</g>
<!-- 6 -->
<g id="node5" class="node">
<title>6</title>
<ellipse fill="none" stroke="#000000" cx="109" cy="-18" rx="27" ry="18"/>
<text text-anchor="middle" x="109" y="-13.8" font-family="Times,serif" font-size="14.00" fill="#000000">6</text>
</g>
<!-- 2&#45;&#45;6 -->
<g id="edge4" class="edge">
<title>2--6</title>
<path fill="none" stroke="#000000" d="M120.6721,-217.4835C136.2473,-194.3191 163.0225,-150.2655 173,-108 176.676,-92.428 179.7421,-86.5101 173,-72 164.2398,-53.1468 145.2967,-38.5067 130.2803,-29.2556"/>
</g>
<!-- 3&#45;&#45;4 -->
<g id="edge5" class="edge">
<title>3--4</title>
<path fill="none" stroke="#000000" d="M69.5196,-145.6621C60.5186,-133.8788 48.4207,-118.0416 39.431,-106.2733"/>
</g>
<!-- 3&#45;&#45;6 -->
<g id="edge6" class="edge">
<title>3--6</title>
<path fill="none" stroke="#000000" d="M85.365,-144.0535C90.5389,-116.4592 100.3933,-63.9026 105.5926,-36.1727"/>
</g>
<!-- 4&#45;&#45;6 -->
<g id="edge7" class="edge">
<title>4--6</title>
<path fill="none" stroke="#000000" d="M43.5939,-75.4297C57.8206,-62.938 78.2113,-45.034 92.4308,-32.5486"/>
</g>
<!-- 5&#45;&#45;6 -->
<g id="edge8" class="edge">
<title>5--6</title>
<path fill="none" stroke="#000000" d="M130.222,-72.5708C125.8521,-61.3339 120.1894,-46.7727 115.8126,-35.5182"/>
</g>
</g>
</svg>